<svg width="46" height="45" viewBox="0 0 46 45" fill="none" xmlns="http://www.w3.org/2000/svg">
<path d="M9.64746 24.8656C20.9873 32.607 22.0664 37.0314 19.0944 44.9999H27.7939C19.5925 34.5241 30.5889 30.6791 33.9366 25.1994C23.7637 36.6423 20.7086 28.7681 27.0463 22.7589C21.8245 27.0529 22.507 27.5824 20.0261 21.4351C22.3606 29.9006 18.9716 29.4057 9.64746 24.8656Z" fill="#00196C"/>
<ellipse cx="22.8861" cy="23.4383" rx="1.08337" ry="1.15119" fill="#00196C"/>
<ellipse cx="26.9373" cy="27.7205" rx="2.0584" ry="2.18726" fill="#00196C"/>
<ellipse cx="18.0322" cy="25.3955" rx="1.84172" ry="1.95702" fill="#00196C"/>
<path fill-rule="evenodd" clip-rule="evenodd" d="M24.2046 1.82879L22.5289 0L20.8134 1.77488C19.8629 2.75829 19.8428 4.37444 20.7667 5.38282C21.1363 5.78618 21.6016 6.03141 22.0876 6.11733L22.4311 3.5959L22.7188 6.13982C23.2415 6.08537 23.7511 5.84905 24.1567 5.42942C25.1056 4.4476 25.1271 2.83554 24.2046 1.82879Z" fill="#00196C"/>
<path fill-rule="evenodd" clip-rule="evenodd" d="M23.6319 14.1845L22.35 12.9082L21.1394 14.2811C20.4761 15.0334 20.5145 16.217 21.2253 16.9246C21.5035 17.2017 21.8439 17.3643 22.195 17.4145L22.4086 15.1265L22.6227 17.4204C23.0266 17.3739 23.4171 17.1798 23.7157 16.8411C24.3817 16.0859 24.3455 14.895 23.6319 14.1845Z" fill="#00196C"/>
<path fill-rule="evenodd" clip-rule="evenodd" d="M23.203 8.65079L22.4054 7.80322L21.6077 8.65079C21.1672 9.11889 21.1672 9.87783 21.6077 10.3459C21.8033 10.5537 22.0528 10.6693 22.3084 10.6926L22.4137 9.71582L22.5189 10.691C22.7687 10.6643 23.0116 10.5493 23.203 10.3459C23.6435 9.87783 23.6435 9.11889 23.203 8.65079Z" fill="#00196C"/>
<path fill-rule="evenodd" clip-rule="evenodd" d="M34.8152 32.3986L34.2766 35.0221L32.0664 34.5097C30.6989 34.1927 29.8192 32.821 30.1015 31.446L30.129 31.3123C30.2617 30.6659 30.6408 30.1403 31.1473 29.8118L30.7715 30.1272L32.5163 31.9272L31.2853 29.729C31.7735 29.4582 32.3617 29.3616 32.9558 29.4993C34.2499 29.7993 35.0823 31.0974 34.8152 32.3986Z" fill="#00196C"/>
<path fill-rule="evenodd" clip-rule="evenodd" d="M34.6109 21.29L34.4702 23.9834L32.2246 23.8509C30.8199 23.768 29.7406 22.5616 29.8141 21.1564L29.8219 21.0074C29.8517 20.4372 30.0782 19.9253 30.4322 19.5336L32.1067 21.2611L30.9114 19.1267C31.3213 18.8629 31.8161 18.7223 32.3416 18.7533C33.664 18.8313 34.6801 19.967 34.6109 21.29Z" fill="#00196C"/>
<path fill-rule="evenodd" clip-rule="evenodd" d="M43.9517 22.6874L44.3347 25.3482L42.1055 25.7106C40.7181 25.9361 39.4311 24.991 39.2308 23.5998L39.2104 23.458C39.095 22.6561 39.3889 21.8826 39.9334 21.3535L39.5729 21.8223L41.6419 23.1803L39.9845 21.3052C40.324 20.9936 40.7539 20.7743 41.2389 20.6955C42.5481 20.4826 43.7627 21.3745 43.9517 22.6874Z" fill="#00196C"/>
<path fill-rule="evenodd" clip-rule="evenodd" d="M38.621 6.48678L40.8403 6.93331L40.3697 9.57473C40.1368 10.8816 38.893 11.7288 37.5917 11.4669C37.1375 11.3756 36.7364 11.1612 36.4164 10.8653L38.0443 8.96205L35.9966 10.3559L36.3537 10.8052C35.7978 10.2537 35.5108 9.44704 35.657 8.62655L35.6815 8.48898C35.9279 7.10614 37.244 6.20972 38.621 6.48678Z" fill="#00196C"/>
<path fill-rule="evenodd" clip-rule="evenodd" d="M26.5515 8.98881L28.441 8.44971L29.0047 10.6806C29.2857 11.7927 28.6193 12.9494 27.5163 13.2641C27.0493 13.3973 26.5789 13.3583 26.1703 13.1846L27.058 11.0672L25.7927 12.9633L26.1252 13.1647C25.5901 12.9214 25.1679 12.4441 25.0102 11.8203L24.9828 11.7117C24.6866 10.5396 25.389 9.3205 26.5515 8.98881Z" fill="#00196C"/>
<path fill-rule="evenodd" clip-rule="evenodd" d="M28.4943 1.93236L29.985 1.0498L30.8703 2.73831C31.3295 3.61403 31.012 4.73233 30.1611 5.23609C29.7984 5.45089 29.3972 5.51928 29.0207 5.45918L29.3126 3.46533L28.6096 5.33773C28.2715 5.18825 27.9788 4.92444 27.7891 4.5626L27.7621 4.51117C27.288 3.60704 27.6158 2.45247 28.4943 1.93236Z" fill="#00196C"/>
<path fill-rule="evenodd" clip-rule="evenodd" d="M32.2174 14.1586L33.5228 14.8553L32.8177 16.3467C32.4551 17.1138 31.5543 17.4118 30.8058 17.0123C30.4879 16.8426 30.2486 16.5744 30.1063 16.2633L31.4368 15.4977L29.9753 15.8265C29.9277 15.5188 29.9671 15.196 30.1071 14.8999L30.1313 14.8487C30.5073 14.0533 31.4413 13.7443 32.2174 14.1586ZM30.0241 16.0438C30.0383 16.092 30.0548 16.1395 30.0733 16.1861L30.0241 16.0438Z" fill="#00196C"/>
<path fill-rule="evenodd" clip-rule="evenodd" d="M27.4538 16.9232L28.4295 17.4273L27.9182 18.545C27.6558 19.1184 26.9889 19.3487 26.4286 19.0592C26.1933 18.9377 26.0142 18.7437 25.905 18.5171L26.7628 18.0581L25.8247 18.3003C25.755 18.0396 25.7709 17.7554 25.8892 17.4968L25.9073 17.4572C26.1797 16.8618 26.8721 16.6228 27.4538 16.9232Z" fill="#00196C"/>
<path fill-rule="evenodd" clip-rule="evenodd" d="M37.5549 13.2755L38.5257 13.7937L38.0013 14.9029C37.7316 15.4734 37.0617 15.695 36.505 15.3978C36.1844 15.2267 35.9713 14.9208 35.8997 14.5832L35.9267 14.6836L36.8521 14.276L35.8788 14.448C35.8585 14.24 35.8915 14.0253 35.9854 13.8268L36.0034 13.7887C36.283 13.1971 36.9777 12.9674 37.5549 13.2755Z" fill="#00196C"/>
<path fill-rule="evenodd" clip-rule="evenodd" d="M33.7886 3.77171L34.8377 3.60645L35.0124 4.85906C35.0986 5.47693 34.6689 6.05651 34.0527 6.15359C33.7904 6.19491 33.5366 6.14218 33.325 6.02034L33.7094 5.07915L33.1439 5.89018C32.9529 5.72128 32.8191 5.48528 32.7808 5.21062L32.7714 5.14369C32.6801 4.48885 33.1355 3.8746 33.7886 3.77171Z" fill="#00196C"/>
<path fill-rule="evenodd" clip-rule="evenodd" d="M43.5705 17.4829L44.0411 18.6252L43.0512 19.0858C42.4566 19.3624 41.7719 19.0951 41.5221 18.4887L41.5038 18.4444C41.4241 18.2511 41.4006 18.0461 41.4255 17.8488L42.4043 18.004L41.4788 17.6155C41.5798 17.3136 41.7983 17.0517 42.1029 16.9099C42.6736 16.6444 43.3307 16.901 43.5705 17.4829Z" fill="#00196C"/>
<path fill-rule="evenodd" clip-rule="evenodd" d="M36.862 26.463L36.6976 27.7175L35.6476 27.5621C34.9934 27.4653 34.5328 26.8553 34.6187 26.1997L34.6275 26.1323C34.6599 25.8851 34.7698 25.6685 34.9294 25.5033L35.6474 26.2045L35.1027 25.3573C35.3247 25.2061 35.6025 25.135 35.8915 25.1778C36.5086 25.2691 36.9431 25.8445 36.862 26.463Z" fill="#00196C"/>
<path fill-rule="evenodd" clip-rule="evenodd" d="M32.0305 7.83468L33.6732 7.60254L33.919 9.56596C34.0401 10.5335 33.3555 11.4285 32.39 11.565C31.9848 11.6222 31.5946 11.5368 31.2692 11.3469L32.237 9.59466L30.942 11.0999C30.6651 10.834 30.4743 10.4739 30.4225 10.0601L30.4093 9.95433C30.2808 8.92836 31.0067 7.97936 32.0305 7.83468Z" fill="#00196C"/>
<path fill-rule="evenodd" clip-rule="evenodd" d="M38.8243 17.4056L40.3046 18.3138L39.3964 19.9852C38.924 20.8548 37.8571 21.1402 37.0136 20.6227C36.5898 20.3627 36.303 19.9495 36.1824 19.4923L37.9936 18.9767L36.1199 19.0802C36.1058 18.7506 36.1765 18.4153 36.3417 18.1112L36.3681 18.0627C36.8551 17.1664 37.9548 16.8722 38.8243 17.4056Z" fill="#00196C"/>
<path fill-rule="evenodd" clip-rule="evenodd" d="M43.5865 11.4375L45.0079 12.4759L43.9872 14.0534C43.4472 14.8879 42.3588 15.0891 41.5562 14.5027C41.1918 14.2365 40.949 13.8537 40.843 13.437L42.6533 12.9216L40.7836 13.0249C40.7695 12.6467 40.8651 12.263 41.0807 11.9298L41.1022 11.8967C41.654 11.0438 42.7663 10.8382 43.5865 11.4375Z" fill="#00196C"/>
<path fill-rule="evenodd" clip-rule="evenodd" d="M40.6304 29.9966L40.739 31.9769L39.0879 32.0792C38.055 32.1432 37.1718 31.3574 37.1151 30.3242L37.1091 30.2147C37.0881 29.8306 37.1914 29.4677 37.3841 29.1654L38.9404 30.3374L37.6457 28.844C37.9397 28.5579 38.3331 28.3715 38.7732 28.3443C39.7455 28.284 40.5771 29.0238 40.6304 29.9966Z" fill="#00196C"/>
<path fill-rule="evenodd" clip-rule="evenodd" d="M10.1946 32.3986L10.7332 35.0221L12.9433 34.5097C14.3108 34.1927 15.1905 32.821 14.9082 31.446L14.8808 31.3123C14.7481 30.6659 14.369 30.1403 13.8624 29.8118L14.2382 30.1272L12.4934 31.9272L13.7245 29.729C13.2362 29.4582 12.6481 29.3616 12.054 29.4993C10.7599 29.7993 9.92742 31.0974 10.1946 32.3986Z" fill="#00196C"/>
<path fill-rule="evenodd" clip-rule="evenodd" d="M10.3988 21.29L10.5396 23.9834L12.7852 23.8509C14.1899 23.768 15.2691 22.5616 15.1957 21.1564L15.1879 21.0074C15.1581 20.4372 14.9316 19.9253 14.5776 19.5336L12.903 21.2611L14.0984 19.1267C13.6885 18.8629 13.1937 18.7223 12.6682 18.7533C11.3457 18.8313 10.3297 19.967 10.3988 21.29Z" fill="#00196C"/>
<path fill-rule="evenodd" clip-rule="evenodd" d="M1.06099 22.6874L0.677959 25.3482L2.90719 25.7106C4.29455 25.9361 5.58159 24.991 5.78185 23.5998L5.80227 23.458C5.9177 22.6561 5.62384 21.8826 5.07929 21.3535L5.43977 21.8223L3.3708 23.1803L5.02823 21.3052C4.68871 20.9936 4.25879 20.7743 3.77383 20.6955C2.46457 20.4826 1.24998 21.3745 1.06099 22.6874Z" fill="#00196C"/>
<path fill-rule="evenodd" clip-rule="evenodd" d="M6.38878 6.48678L4.16943 6.93331L4.6401 9.57473C4.87297 10.8816 6.11672 11.7288 7.41809 11.4669C7.87225 11.3756 8.2734 11.1612 8.59334 10.8653L6.96544 8.96205L9.0132 10.3559L8.65604 10.8052C9.21198 10.2537 9.49899 9.44704 9.35279 8.62655L9.32828 8.48898C9.08187 7.10614 7.76581 6.20972 6.38878 6.48678Z" fill="#00196C"/>
<path fill-rule="evenodd" clip-rule="evenodd" d="M18.4583 8.98881L16.5688 8.44971L16.005 10.6806C15.724 11.7927 16.3904 12.9494 17.4935 13.2641C17.9605 13.3973 18.4309 13.3583 18.8394 13.1846L17.9517 11.0672L19.2171 12.9633L18.8845 13.1647C19.4196 12.9214 19.8419 12.4441 19.9995 11.8203L20.027 11.7117C20.3231 10.5396 19.6208 9.3205 18.4583 8.98881Z" fill="#00196C"/>
<path fill-rule="evenodd" clip-rule="evenodd" d="M16.5155 1.93236L15.0248 1.0498L14.1394 2.73831C13.6802 3.61403 13.9978 4.73233 14.8486 5.23609C15.2114 5.45089 15.6126 5.51928 15.9891 5.45918L15.6972 3.46533L16.4001 5.33773C16.7383 5.18825 17.0309 4.92444 17.2207 4.5626L17.2476 4.51117C17.7217 3.60704 17.3939 2.45247 16.5155 1.93236Z" fill="#00196C"/>
<path fill-rule="evenodd" clip-rule="evenodd" d="M12.7923 14.1586L11.487 14.8553L12.192 16.3467C12.5547 17.1138 13.4554 17.4118 14.204 17.0123C14.5218 16.8426 14.7611 16.5744 14.9035 16.2633L13.5729 15.4977L15.0345 15.8265C15.082 15.5188 15.0427 15.196 14.9027 14.8999L14.8785 14.8487C14.5025 14.0533 13.5685 13.7443 12.7923 14.1586ZM14.9857 16.0438C14.9714 16.092 14.955 16.1395 14.9364 16.1861L14.9857 16.0438Z" fill="#00196C"/>
<path fill-rule="evenodd" clip-rule="evenodd" d="M17.556 16.9232L16.5803 17.4273L17.0916 18.545C17.354 19.1184 18.0208 19.3487 18.5811 19.0592C18.8165 18.9377 18.9956 18.7437 19.1048 18.5171L18.247 18.0581L19.1851 18.3003C19.2547 18.0396 19.2389 17.7554 19.1206 17.4968L19.1024 17.4572C18.8301 16.8618 18.1377 16.6228 17.556 16.9232Z" fill="#00196C"/>
<path fill-rule="evenodd" clip-rule="evenodd" d="M7.45486 13.2755L6.48405 13.7937L7.00842 14.9029C7.27813 15.4734 7.94806 15.695 8.50475 15.3978C8.82537 15.2267 9.03851 14.9208 9.11009 14.5832L9.08303 14.6836L8.15762 14.276L9.13097 14.448C9.15127 14.24 9.11825 14.0253 9.0244 13.8268L9.00638 13.7887C8.72673 13.1971 8.03209 12.9674 7.45486 13.2755Z" fill="#00196C"/>
<path fill-rule="evenodd" clip-rule="evenodd" d="M11.2212 3.77171L10.1721 3.60645L9.99734 4.85906C9.91114 5.47693 10.3408 6.05651 10.9571 6.15359C11.2193 6.19491 11.4731 6.14218 11.6848 6.02034L11.3004 5.07915L11.8659 5.89018C12.0569 5.72128 12.1907 5.48528 12.229 5.21062L12.2383 5.14369C12.3297 4.48885 11.8743 3.8746 11.2212 3.77171Z" fill="#00196C"/>
<path fill-rule="evenodd" clip-rule="evenodd" d="M1.43833 17.4829L0.967655 18.6252L1.95755 19.0858C2.55222 19.3624 3.23685 19.0951 3.48672 18.4887L3.50497 18.4444C3.58465 18.2511 3.60823 18.0461 3.58327 17.8488L2.60452 18.004L3.52996 17.6155C3.42897 17.3136 3.21051 17.0517 2.90584 16.9099C2.33516 16.6444 1.67813 16.901 1.43833 17.4829Z" fill="#00196C"/>
<path fill-rule="evenodd" clip-rule="evenodd" d="M8.14774 26.463L8.31216 27.7175L9.36221 27.5621C10.0164 27.4653 10.477 26.8553 10.3911 26.1997L10.3822 26.1323C10.3498 25.8851 10.24 25.6685 10.0804 25.5033L9.36232 26.2045L9.9071 25.3573C9.68508 25.2061 9.40726 25.135 9.11822 25.1778C8.50119 25.2691 8.06669 25.8445 8.14774 26.463Z" fill="#00196C"/>
<path fill-rule="evenodd" clip-rule="evenodd" d="M12.9793 7.83468L11.3365 7.60254L11.0908 9.56596C10.9697 10.5335 11.6543 11.4285 12.6198 11.565C13.0249 11.6222 13.4151 11.5368 13.7406 11.3469L12.7727 9.59466L14.0677 11.0999C14.3447 10.834 14.5355 10.4739 14.5873 10.0601L14.6005 9.95433C14.7289 8.92836 14.0031 7.97936 12.9793 7.83468Z" fill="#00196C"/>
<path fill-rule="evenodd" clip-rule="evenodd" d="M6.18549 17.4056L4.70518 18.3138L5.61334 19.9852C6.0858 20.8548 7.15262 21.1402 7.99615 20.6227C8.41996 20.3627 8.70677 19.9495 8.82735 19.4923L7.01612 18.9767L8.88985 19.0802C8.90392 18.7506 8.83327 18.4153 8.66803 18.1112L8.64169 18.0627C8.15467 17.1664 7.055 16.8722 6.18549 17.4056Z" fill="#00196C"/>
<path fill-rule="evenodd" clip-rule="evenodd" d="M1.42324 11.4375L0.00187683 12.4759L1.02254 14.0534C1.56253 14.8879 2.65092 15.0891 3.45354 14.5027C3.81792 14.2365 4.06076 13.8537 4.16678 13.437L2.35647 12.9216L4.2262 13.0249C4.24022 12.6467 4.14464 12.263 3.92907 11.9298L3.90761 11.8967C3.35576 11.0438 2.24347 10.8382 1.42324 11.4375Z" fill="#00196C"/>
<path fill-rule="evenodd" clip-rule="evenodd" d="M4.37935 29.9966L4.27072 31.9769L5.92191 32.0792C6.95473 32.1432 7.83794 31.3574 7.89462 30.3242L7.90062 30.2147C7.92169 29.8306 7.81834 29.4677 7.6257 29.1654L6.06933 30.3374L7.3641 28.844C7.07011 28.5579 6.67663 28.3715 6.2366 28.3443C5.26423 28.284 4.43271 29.0238 4.37935 29.9966Z" fill="#00196C"/>
</svg>
